<svg viewBox="0 0 60.49 60.48" xmlns="http://www.w3.org/2000/svg" xmlns:xlink="http://www.w3.org/1999/xlink" width="60.489990" height="60.480011" fill="none" customFrame="#000000">
	<path id="矢量 1" d="M35.48 30.26L47.2 18.54C48.33 19 49.56 19.26 50.86 19.26C56.18 19.26 60.49 14.95 60.49 9.63C60.49 4.31 56.17 0 50.86 0C45.55 0 41.23 4.31 41.23 9.63C41.23 10.93 41.49 12.18 41.96 13.31L30.24 25.03L12.61 7.4L23.3 7.4C25.34 7.4 27 5.74 27 3.7C27 1.66 25.34 3.57628e-07 23.3 3.57628e-07L3.7 3.57628e-07C2.42 3.57628e-07 1.3 0.65 0.630001 1.63C0.230001 2.22 8.34465e-07 2.93 8.34465e-07 3.7L8.34465e-07 23.3C8.34465e-07 25.34 1.66 27 3.7 27C5.74 27 7.4 25.34 7.4 23.3L7.4 12.65L25.01 30.26L13.99 41.28C12.77 40.75 11.43 40.46 10.01 40.46C4.48 40.46 0 44.94 0 50.47C0 56 4.48 60.48 10.01 60.48C15.54 60.48 20.02 56 20.02 50.47C20.02 49.07 19.73 47.73 19.21 46.52L30.23 35.5L53.32 58.59C54.77 60.04 57.11 60.04 58.55 58.59C60 57.14 60 54.8 58.55 53.36L35.46 30.27L35.48 30.26Z" fill="rgb(0,0,0)" fill-rule="evenodd" />
</svg>
