<svg width="217" height="61" viewBox="0 0 217 61" fill="none" xmlns="http://www.w3.org/2000/svg">
<g clip-path="url(#clip0_0_1)">
<path fill-rule="evenodd" clip-rule="evenodd" d="M35.48 30.26L47.2 18.54C48.33 19 49.56 19.26 50.86 19.26C56.18 19.26 60.49 14.95 60.49 9.63C60.49 4.31 56.17 0 50.86 0C45.55 0 41.23 4.31 41.23 9.63C41.23 10.93 41.49 12.18 41.96 13.31L30.24 25.03L12.61 7.4H23.3C25.34 7.4 27 5.74 27 3.7C27 1.66 25.34 3.57628e-07 23.3 3.57628e-07H3.7C2.42 3.57628e-07 1.3 0.65 0.630001 1.63C0.230001 2.22 8.34465e-07 2.93 8.34465e-07 3.7V23.3C8.34465e-07 25.34 1.66 27 3.7 27C5.74 27 7.4 25.34 7.4 23.3V12.65L25.01 30.26L13.99 41.28C12.77 40.75 11.43 40.46 10.01 40.46C4.48 40.46 0 44.94 0 50.47C0 56 4.48 60.48 10.01 60.48C15.54 60.48 20.02 56 20.02 50.47C20.02 49.07 19.73 47.73 19.21 46.52L30.23 35.5L53.32 58.59C54.77 60.04 57.11 60.04 58.55 58.59C60 57.14 60 54.8 58.55 53.36L35.46 30.27L35.48 30.26Z" fill="black"/>
</g>
<path d="M78.53 26C78.09 26 77.72 25.85 77.42 25.55C77.14 25.25 77 24.88 77 24.44V4.13C77 3.69 77.15 3.32 77.45 3.02C77.75 2.72 78.11 2.57 78.53 2.57C78.97 2.57 79.34 2.72 79.64 3.02C79.94 3.32 80.09 3.69 80.09 4.13V22.88H90.95C91.39 22.88 91.76 23.03 92.06 23.33C92.36 23.63 92.51 24 92.51 24.44C92.51 24.88 92.36 25.25 92.06 25.55C91.76 25.85 91.39 26 90.95 26H78.53ZM103.388 26.12C101.768 26.12 100.338 25.77 99.098 25.07C97.858 24.35 96.878 23.37 96.158 22.13C95.458 20.87 95.108 19.43 95.108 17.81C95.108 16.17 95.458 14.73 96.158 13.49C96.878 12.23 97.858 11.25 99.098 10.55C100.338 9.83 101.768 9.47 103.388 9.47C104.988 9.47 106.408 9.83 107.648 10.55C108.888 11.25 109.858 12.23 110.558 13.49C111.278 14.73 111.638 16.17 111.638 17.81C111.638 19.43 111.288 20.87 110.588 22.13C109.888 23.37 108.918 24.35 107.678 25.07C106.438 25.77 105.008 26.12 103.388 26.12ZM103.388 23.42C104.428 23.42 105.348 23.18 106.148 22.7C106.948 22.22 107.568 21.56 108.008 20.72C108.468 19.88 108.698 18.91 108.698 17.81C108.698 16.71 108.468 15.74 108.008 14.9C107.568 14.04 106.948 13.37 106.148 12.89C105.348 12.41 104.428 12.17 103.388 12.17C102.348 12.17 101.428 12.41 100.628 12.89C99.828 13.37 99.198 14.04 98.738 14.9C98.278 15.74 98.048 16.71 98.048 17.81C98.048 18.91 98.278 19.88 98.738 20.72C99.198 21.56 99.828 22.22 100.628 22.7C101.428 23.18 102.348 23.42 103.388 23.42ZM120.092 26C119.212 26 118.432 25.76 117.752 25.28C117.072 24.8 116.542 24.15 116.162 23.33C115.782 22.49 115.592 21.53 115.592 20.45V4.07C115.592 3.63 115.732 3.27 116.012 2.99C116.292 2.71 116.652 2.57 117.092 2.57C117.532 2.57 117.892 2.71 118.172 2.99C118.452 3.27 118.592 3.63 118.592 4.07V20.45C118.592 21.19 118.732 21.8 119.012 22.28C119.292 22.76 119.652 23 120.092 23H120.842C121.242 23 121.562 23.14 121.802 23.42C122.062 23.7 122.192 24.06 122.192 24.5C122.192 24.94 122.002 25.3 121.622 25.58C121.242 25.86 120.752 26 120.152 26H120.092ZM127.016 26C126.576 26 126.206 25.86 125.906 25.58C125.626 25.28 125.486 24.91 125.486 24.47V11.12C125.486 10.66 125.626 10.29 125.906 10.01C126.206 9.73 126.576 9.59 127.016 9.59C127.476 9.59 127.846 9.73 128.126 10.01C128.406 10.29 128.546 10.66 128.546 11.12V24.47C128.546 24.91 128.406 25.28 128.126 25.58C127.846 25.86 127.476 26 127.016 26ZM127.016 6.92C126.476 6.92 126.006 6.73 125.606 6.35C125.226 5.95 125.036 5.48 125.036 4.94C125.036 4.4 125.226 3.94 125.606 3.56C126.006 3.16 126.476 2.96 127.016 2.96C127.556 2.96 128.016 3.16 128.396 3.56C128.796 3.94 128.996 4.4 128.996 4.94C128.996 5.48 128.796 5.95 128.396 6.35C128.016 6.73 127.556 6.92 127.016 6.92ZM141.079 26.12C139.619 26.12 138.309 25.76 137.149 25.04C135.989 24.3 135.069 23.31 134.389 22.07C133.729 20.81 133.399 19.39 133.399 17.81C133.399 16.23 133.759 14.81 134.479 13.55C135.219 12.29 136.209 11.3 137.449 10.58C138.709 9.84 140.119 9.47 141.679 9.47C143.239 9.47 144.639 9.84 145.879 10.58C147.119 11.3 148.099 12.29 148.819 13.55C149.559 14.81 149.929 16.23 149.929 17.81H148.759C148.759 19.39 148.419 20.81 147.739 22.07C147.079 23.31 146.169 24.3 145.009 25.04C143.849 25.76 142.539 26.12 141.079 26.12ZM141.679 23.42C142.699 23.42 143.609 23.18 144.409 22.7C145.209 22.2 145.839 21.53 146.299 20.69C146.759 19.83 146.989 18.87 146.989 17.81C146.989 16.73 146.759 15.77 146.299 14.93C145.839 14.07 145.209 13.4 144.409 12.92C143.609 12.42 142.699 12.17 141.679 12.17C140.679 12.17 139.769 12.42 138.949 12.92C138.149 13.4 137.509 14.07 137.029 14.93C136.569 15.77 136.339 16.73 136.339 17.81C136.339 18.87 136.569 19.83 137.029 20.69C137.509 21.53 138.149 22.2 138.949 22.7C139.769 23.18 140.679 23.42 141.679 23.42ZM148.399 26.03C147.959 26.03 147.589 25.89 147.289 25.61C147.009 25.31 146.869 24.94 146.869 24.5V19.91L147.439 16.73L149.929 17.81V24.5C149.929 24.94 149.779 25.31 149.479 25.61C149.199 25.89 148.839 26.03 148.399 26.03ZM163.242 26C162.802 26 162.432 25.85 162.132 25.55C161.832 25.25 161.682 24.88 161.682 24.44V4.13C161.682 3.67 161.832 3.3 162.132 3.02C162.432 2.72 162.802 2.57 163.242 2.57H176.802C177.262 2.57 177.632 2.71 177.912 2.99C178.192 3.25 178.332 3.6 178.332 4.04C178.332 4.46 178.192 4.8 177.912 5.06C177.632 5.32 177.262 5.45 176.802 5.45H164.802V12.74H173.412C173.872 12.74 174.242 12.88 174.522 13.16C174.802 13.42 174.942 13.76 174.942 14.18C174.942 14.6 174.802 14.95 174.522 15.23C174.242 15.49 173.872 15.62 173.412 15.62H164.802V24.44C164.802 24.88 164.652 25.25 164.352 25.55C164.052 25.85 163.682 26 163.242 26ZM183.882 26C183.442 26 183.072 25.85 182.772 25.55C182.472 25.25 182.322 24.88 182.322 24.44V4.13C182.322 3.67 182.472 3.3 182.772 3.02C183.072 2.72 183.442 2.57 183.882 2.57H189.282C190.782 2.57 192.112 2.89 193.272 3.53C194.432 4.15 195.332 5.01 195.972 6.11C196.632 7.21 196.962 8.49 196.962 9.95C196.962 11.31 196.632 12.52 195.972 13.58C195.332 14.64 194.432 15.47 193.272 16.07C192.112 16.67 190.782 16.97 189.282 16.97H185.442V24.44C185.442 24.88 185.292 25.25 184.992 25.55C184.712 25.85 184.342 26 183.882 26ZM196.332 26C196.052 26 195.792 25.94 195.552 25.82C195.332 25.7 195.142 25.51 194.982 25.25L189.582 16.55L192.612 15.68L197.532 23.6C197.892 24.18 197.942 24.73 197.682 25.25C197.422 25.75 196.972 26 196.332 26ZM185.442 14.09H189.282C190.202 14.09 191.012 13.92 191.712 13.58C192.412 13.22 192.962 12.73 193.362 12.11C193.762 11.47 193.962 10.75 193.962 9.95C193.962 9.07 193.762 8.29 193.362 7.61C192.962 6.93 192.412 6.4 191.712 6.02C191.012 5.64 190.202 5.45 189.282 5.45H185.442V14.09ZM202.837 26C202.397 26 202.027 25.85 201.727 25.55C201.427 25.25 201.277 24.88 201.277 24.44V4.13C201.277 3.67 201.427 3.3 201.727 3.02C202.027 2.72 202.397 2.57 202.837 2.57H208.837C210.337 2.57 211.667 2.9 212.827 3.56C213.987 4.22 214.887 5.14 215.527 6.32C216.187 7.48 216.517 8.82 216.517 10.34C216.517 11.8 216.187 13.1 215.527 14.24C214.887 15.38 213.987 16.27 212.827 16.91C211.667 17.55 210.337 17.87 208.837 17.87H204.397V24.44C204.397 24.88 204.247 25.25 203.947 25.55C203.667 25.85 203.297 26 202.837 26ZM204.397 14.99H208.837C209.757 14.99 210.567 14.79 211.267 14.39C211.967 13.99 212.517 13.44 212.917 12.74C213.317 12.04 213.517 11.24 213.517 10.34C213.517 9.38 213.317 8.54 212.917 7.82C212.517 7.08 211.967 6.5 211.267 6.08C210.567 5.66 209.757 5.45 208.837 5.45H204.397V14.99ZM87.5 59.3C85.88 59.3 84.36 59 82.94 58.4C81.54 57.78 80.31 56.93 79.25 55.85C78.21 54.75 77.39 53.47 76.79 52.01C76.21 50.55 75.92 48.97 75.92 47.27C75.92 45.59 76.21 44.03 76.79 42.59C77.39 41.13 78.21 39.86 79.25 38.78C80.31 37.68 81.54 36.82 82.94 36.2C84.34 35.58 85.86 35.27 87.5 35.27C89.04 35.27 90.36 35.47 91.46 35.87C92.58 36.27 93.7 36.93 94.82 37.85C94.98 37.97 95.1 38.1 95.18 38.24C95.28 38.36 95.34 38.49 95.36 38.63C95.4 38.75 95.42 38.9 95.42 39.08C95.42 39.46 95.28 39.78 95 40.04C94.74 40.28 94.42 40.42 94.04 40.46C93.66 40.48 93.29 40.35 92.93 40.07C92.19 39.43 91.42 38.94 90.62 38.6C89.84 38.26 88.8 38.09 87.5 38.09C86.32 38.09 85.21 38.33 84.17 38.81C83.13 39.29 82.21 39.95 81.41 40.79C80.63 41.63 80.02 42.61 79.58 43.73C79.14 44.83 78.92 46.01 78.92 47.27C78.92 48.55 79.14 49.75 79.58 50.87C80.02 51.97 80.63 52.94 81.41 53.78C82.21 54.62 83.13 55.28 84.17 55.76C85.21 56.22 86.32 56.45 87.5 56.45C88.52 56.45 89.48 56.28 90.38 55.94C91.3 55.58 92.18 55.09 93.02 54.47C93.38 54.21 93.73 54.1 94.07 54.14C94.43 54.16 94.73 54.3 94.97 54.56C95.21 54.8 95.33 55.14 95.33 55.58C95.33 55.78 95.29 55.98 95.21 56.18C95.13 56.36 95.01 56.53 94.85 56.69C93.77 57.55 92.61 58.2 91.37 58.64C90.15 59.08 88.86 59.3 87.5 59.3ZM103.92 59C103.04 59 102.26 58.76 101.58 58.28C100.9 57.8 100.37 57.15 99.9903 56.33C99.6103 55.49 99.4203 54.53 99.4203 53.45V37.07C99.4203 36.63 99.5603 36.27 99.8403 35.99C100.12 35.71 100.48 35.57 100.92 35.57C101.36 35.57 101.72 35.71 102 35.99C102.28 36.27 102.42 36.63 102.42 37.07V53.45C102.42 54.19 102.56 54.8 102.84 55.28C103.12 55.76 103.48 56 103.92 56H104.67C105.07 56 105.39 56.14 105.63 56.42C105.89 56.7 106.02 57.06 106.02 57.5C106.02 57.94 105.83 58.3 105.45 58.58C105.07 58.86 104.58 59 103.98 59H103.92ZM110.844 59C110.404 59 110.034 58.86 109.734 58.58C109.454 58.28 109.314 57.91 109.314 57.47V44.12C109.314 43.66 109.454 43.29 109.734 43.01C110.034 42.73 110.404 42.59 110.844 42.59C111.304 42.59 111.674 42.73 111.954 43.01C112.234 43.29 112.374 43.66 112.374 44.12V57.47C112.374 57.91 112.234 58.28 111.954 58.58C111.674 58.86 111.304 59 110.844 59ZM110.844 39.92C110.304 39.92 109.834 39.73 109.434 39.35C109.054 38.95 108.864 38.48 108.864 37.94C108.864 37.4 109.054 36.94 109.434 36.56C109.834 36.16 110.304 35.96 110.844 35.96C111.384 35.96 111.844 36.16 112.224 36.56C112.624 36.94 112.824 37.4 112.824 37.94C112.824 38.48 112.624 38.95 112.224 39.35C111.844 39.73 111.384 39.92 110.844 39.92ZM125.777 59.12C124.117 59.12 122.637 58.77 121.337 58.07C120.057 57.35 119.047 56.37 118.307 55.13C117.587 53.87 117.227 52.43 117.227 50.81C117.227 49.17 117.567 47.73 118.247 46.49C118.947 45.23 119.907 44.25 121.127 43.55C122.347 42.83 123.747 42.47 125.327 42.47C126.887 42.47 128.227 42.82 129.347 43.52C130.467 44.2 131.317 45.15 131.897 46.37C132.497 47.57 132.797 48.96 132.797 50.54C132.797 50.92 132.667 51.24 132.407 51.5C132.147 51.74 131.817 51.86 131.417 51.86H119.327V49.46H131.327L130.097 50.3C130.077 49.3 129.877 48.41 129.497 47.63C129.117 46.83 128.577 46.2 127.877 45.74C127.177 45.28 126.327 45.05 125.327 45.05C124.187 45.05 123.207 45.3 122.387 45.8C121.587 46.3 120.977 46.99 120.557 47.87C120.137 48.73 119.927 49.71 119.927 50.81C119.927 51.91 120.177 52.89 120.677 53.75C121.177 54.61 121.867 55.29 122.747 55.79C123.627 56.29 124.637 56.54 125.777 56.54C126.397 56.54 127.027 56.43 127.667 56.21C128.327 55.97 128.857 55.7 129.257 55.4C129.557 55.18 129.877 55.07 130.217 55.07C130.577 55.05 130.887 55.15 131.147 55.37C131.487 55.67 131.667 56 131.687 56.36C131.707 56.72 131.547 57.03 131.207 57.29C130.527 57.83 129.677 58.27 128.657 58.61C127.657 58.95 126.697 59.12 125.777 59.12ZM150.56 59.03C150.12 59.03 149.75 58.89 149.45 58.61C149.17 58.31 149.03 57.94 149.03 57.5V50.12C149.03 48.98 148.82 48.05 148.4 47.33C147.98 46.61 147.41 46.08 146.69 45.74C145.99 45.38 145.18 45.2 144.26 45.2C143.42 45.2 142.66 45.37 141.98 45.71C141.3 46.05 140.76 46.51 140.36 47.09C139.96 47.65 139.76 48.3 139.76 49.04H137.87C137.87 47.78 138.17 46.66 138.77 45.68C139.39 44.68 140.23 43.89 141.29 43.31C142.35 42.73 143.54 42.44 144.86 42.44C146.24 42.44 147.47 42.74 148.55 43.34C149.65 43.92 150.51 44.78 151.13 45.92C151.77 47.06 152.09 48.46 152.09 50.12V57.5C152.09 57.94 151.94 58.31 151.64 58.61C151.36 58.89 151 59.03 150.56 59.03ZM138.23 59.03C137.79 59.03 137.42 58.89 137.12 58.61C136.84 58.31 136.7 57.94 136.7 57.5V44.12C136.7 43.66 136.84 43.29 137.12 43.01C137.42 42.73 137.79 42.59 138.23 42.59C138.69 42.59 139.06 42.73 139.34 43.01C139.62 43.29 139.76 43.66 139.76 44.12V57.5C139.76 57.94 139.62 58.31 139.34 58.61C139.06 58.89 138.69 59.03 138.23 59.03ZM163.119 59C162.119 59 161.219 58.75 160.419 58.25C159.619 57.73 158.989 57.03 158.529 56.15C158.069 55.27 157.839 54.28 157.839 53.18V38.87C157.839 38.43 157.979 38.07 158.259 37.79C158.539 37.51 158.899 37.37 159.339 37.37C159.779 37.37 160.139 37.51 160.419 37.79C160.699 38.07 160.839 38.43 160.839 38.87V53.18C160.839 53.98 161.059 54.65 161.499 55.19C161.939 55.73 162.479 56 163.119 56H164.139C164.499 56 164.799 56.14 165.039 56.42C165.299 56.7 165.429 57.06 165.429 57.5C165.429 57.94 165.259 58.3 164.919 58.58C164.599 58.86 164.179 59 163.659 59H163.119ZM156.459 45.77C156.039 45.77 155.699 45.65 155.439 45.41C155.179 45.17 155.049 44.87 155.049 44.51C155.049 44.11 155.179 43.79 155.439 43.55C155.699 43.31 156.039 43.19 156.459 43.19H163.389C163.809 43.19 164.149 43.31 164.409 43.55C164.669 43.79 164.799 44.11 164.799 44.51C164.799 44.87 164.669 45.17 164.409 45.41C164.149 45.65 163.809 45.77 163.389 45.77H156.459Z" fill="black"/>
<defs>
<clipPath id="clip0_0_1">
<rect width="60.49" height="60.48" fill="white"/>
</clipPath>
</defs>
</svg>
