<svg viewBox="0 0 229.217 60.48" xmlns="http://www.w3.org/2000/svg" width="229.217010" height="60.479996" fill="none"
     customFrame="#000000">
    <g id="Logo 文字合成">
        <path id=""
              d="M79.4987 18.3928C79.4987 17.8915 79.6753 17.4642 80.0285 17.111C80.3817 16.7578 80.809 16.5813 81.3103 16.5813C81.8116 16.5813 82.2388 16.7578 82.592 17.111C82.9452 17.4642 83.1218 17.8915 83.1218 18.3928L83.1218 40.302L95.8025 40.302C96.3038 40.302 96.731 40.4785 97.0842 40.8317C97.4374 41.1849 97.614 41.6122 97.614 42.1135C97.614 42.6148 97.4374 43.042 97.0842 43.3952C96.731 43.7484 96.3038 43.925 95.8025 43.925L81.3103 43.925C81.0482 43.925 80.809 43.8794 80.5925 43.7883C80.376 43.6971 80.1852 43.569 80.02 43.4038C79.8548 43.2386 79.7266 43.0477 79.6355 42.8313C79.5443 42.6148 79.4987 42.3755 79.4987 42.1135L79.4987 18.3928ZM117.848 34.3547C117.848 37.0207 116.914 39.2766 115.046 41.1223C113.154 42.9908 110.898 43.925 108.278 43.925C105.635 43.925 103.379 42.9908 101.51 41.1223C99.642 39.2538 98.7077 36.9979 98.7077 34.3547C98.7077 31.7115 99.642 29.4556 101.51 27.5871C103.379 25.7186 105.635 24.7844 108.278 24.7844C110.898 24.7844 113.154 25.7186 115.046 27.5871C115.98 28.5214 116.678 29.5524 117.139 30.6804C117.601 31.8083 117.837 33.0331 117.848 34.3547ZM108.278 28.3562C107.435 28.3562 106.649 28.5157 105.92 28.8347C105.19 29.1537 104.558 29.5838 104.023 30.125C103.487 30.6661 103.063 31.3013 102.749 32.0305C102.436 32.7596 102.28 33.5344 102.28 34.3547C102.28 35.175 102.436 35.9497 102.749 36.6789C103.063 37.4081 103.487 38.0433 104.023 38.5844C104.558 39.1256 105.19 39.5557 105.92 39.8747C106.649 40.1937 107.435 40.3532 108.278 40.3532C109.11 40.3532 109.89 40.1937 110.619 39.8747C111.349 39.5557 111.984 39.1228 112.525 38.5759C113.066 38.029 113.493 37.3938 113.807 36.6704C114.12 35.9469 114.277 35.175 114.277 34.3547C114.277 33.5344 114.12 32.7625 113.807 32.039C113.493 31.3155 113.066 30.6804 112.525 30.1335C111.984 29.5866 111.349 29.1537 110.619 28.8347C109.89 28.5157 109.11 28.3562 108.278 28.3562ZM120.412 42.1477L120.412 18.3757C120.412 17.8744 120.58 17.45 120.916 17.1025C121.252 16.755 121.676 16.5813 122.189 16.5813C122.702 16.5813 123.126 16.755 123.462 17.1025C123.798 17.45 123.967 17.8744 123.967 18.3757L123.967 40.3532L124.787 40.3532C125.277 40.3532 125.695 40.527 126.043 40.8745C126.39 41.222 126.564 41.6464 126.564 42.1477C126.564 42.6376 126.39 43.0563 126.043 43.4038C125.695 43.7513 125.277 43.925 124.787 43.925L122.172 43.925C121.682 43.925 121.266 43.7513 120.925 43.4038C120.583 43.0563 120.412 42.6376 120.412 42.1477ZM133.622 21.3835C133.622 21.9646 133.417 22.4602 133.007 22.8703C132.597 23.2805 132.101 23.4855 131.52 23.4855C130.939 23.4855 130.444 23.2805 130.033 22.8703C129.623 22.4602 129.418 21.9646 129.418 21.3835C129.418 20.8024 129.623 20.3068 130.033 19.8967C130.444 19.4865 130.939 19.2814 131.52 19.2814C132.101 19.2814 132.597 19.4865 133.007 19.8967C133.417 20.3068 133.622 20.8024 133.622 21.3835ZM129.743 42.1306L129.743 26.5788C129.743 26.0775 129.917 25.6531 130.264 25.3056C130.612 24.9581 131.03 24.7844 131.52 24.7844C132.01 24.7844 132.429 24.9581 132.776 25.3056C133.124 25.6531 133.303 26.0775 133.315 26.5788L133.315 42.1306C133.303 42.6319 133.124 43.0563 132.776 43.4038C132.429 43.7513 132.01 43.925 131.52 43.925C131.03 43.925 130.612 43.7513 130.264 43.4038C129.917 43.0563 129.743 42.6319 129.743 42.1306ZM146.559 28.3562C145.716 28.3562 144.93 28.5157 144.201 28.8347C143.472 29.1537 142.839 29.5838 142.304 30.125C141.768 30.6661 141.344 31.3013 141.031 32.0305C140.717 32.7596 140.561 33.5344 140.561 34.3547C140.561 35.175 140.717 35.9497 141.031 36.6789C141.344 37.4081 141.768 38.0433 142.304 38.5844C142.839 39.1256 143.472 39.5557 144.201 39.8747C144.93 40.1937 145.716 40.3532 146.559 40.3532C147.391 40.3532 148.171 40.1937 148.901 39.8747C149.63 39.5557 150.265 39.1228 150.806 38.5759C151.347 38.029 151.775 37.3938 152.088 36.6704C152.401 35.9469 152.558 35.175 152.558 34.3547C152.558 33.5344 152.401 32.7625 152.088 32.039C151.775 31.3155 151.347 30.6804 150.806 30.1335C150.265 29.5866 149.63 29.1537 148.901 28.8347C148.171 28.5157 147.391 28.3562 146.559 28.3562ZM152.558 42.1477L152.558 41.8059C151.703 42.4895 150.775 43.0135 149.772 43.3781C148.77 43.7427 147.699 43.925 146.559 43.925C143.916 43.925 141.66 42.9908 139.792 41.1223C137.923 39.2538 136.989 36.9979 136.989 34.3547C136.989 31.7115 137.923 29.4556 139.792 27.5871C141.66 25.7186 143.916 24.7844 146.559 24.7844C149.18 24.7844 151.436 25.7186 153.327 27.5871C155.195 29.4556 156.13 31.7115 156.13 34.3547L156.13 42.1477C156.13 42.6376 155.956 43.0563 155.608 43.4038C155.261 43.7513 154.842 43.925 154.352 43.925C153.851 43.925 153.427 43.7513 153.079 43.4038C152.732 43.0563 152.558 42.6376 152.558 42.1477ZM169.05 42.1135L169.05 18.3928C169.05 18.1421 169.095 17.9057 169.186 17.6835C169.277 17.4614 169.406 17.2677 169.571 17.1025C169.736 16.9373 169.927 16.8091 170.143 16.718C170.36 16.6268 170.599 16.5813 170.861 16.5813L186.669 16.5813C187.17 16.5813 187.598 16.7578 187.951 17.111C188.304 17.4642 188.481 17.8915 188.481 18.3928C188.481 18.8941 188.304 19.3213 187.951 19.6745C187.598 20.0277 187.17 20.2043 186.669 20.2043L172.673 20.2043L172.673 28.4416L182.721 28.4416C183.223 28.4416 183.65 28.6182 184.003 28.9714C184.356 29.3246 184.533 29.7518 184.533 30.2531C184.533 30.7544 184.356 31.1817 184.003 31.5349C183.65 31.8881 183.223 32.0647 182.721 32.0647L172.673 32.0647L172.673 42.1135C172.673 42.6148 172.496 43.042 172.143 43.3952C171.79 43.7484 171.362 43.925 170.861 43.925C170.36 43.925 169.932 43.7484 169.579 43.3952C169.226 43.042 169.05 42.6148 169.05 42.1135ZM194.53 20.2043L194.53 29.7575L199.316 29.7575C199.976 29.7575 200.597 29.6322 201.178 29.3815C201.759 29.1309 202.264 28.7863 202.691 28.3476C203.118 27.909 203.457 27.402 203.708 26.8266C203.958 26.2513 204.084 25.6389 204.084 24.9895C204.084 24.3286 203.958 23.7077 203.708 23.1267C203.457 22.5456 203.115 22.0386 202.682 21.6057C202.249 21.1727 201.742 20.8309 201.161 20.5803C200.58 20.3296 199.965 20.2043 199.316 20.2043L194.53 20.2043ZM190.907 42.1135L190.907 18.3928C190.907 18.1421 190.953 17.9057 191.044 17.6835C191.135 17.4614 191.263 17.2677 191.429 17.1025C191.594 16.9373 191.785 16.8091 192.001 16.718C192.218 16.6268 192.457 16.5813 192.719 16.5813L199.316 16.5813C200.466 16.5813 201.552 16.8034 202.571 17.2478C203.591 17.6921 204.48 18.2959 205.237 19.0593C205.995 19.8226 206.596 20.7141 207.04 21.7338C207.485 22.7535 207.707 23.8387 207.707 24.9895C207.707 25.7414 207.613 26.4734 207.425 27.1855C207.237 27.8976 206.958 28.5698 206.587 29.2021C206.217 29.8344 205.756 30.4212 205.203 30.9624C204.651 31.5035 204.01 31.9792 203.28 32.3894L208.732 41.1223C208.926 41.4413 209.023 41.7717 209.023 42.1135C209.023 42.3755 208.977 42.6148 208.886 42.8313C208.795 43.0477 208.667 43.2386 208.501 43.4038C208.336 43.569 208.143 43.6971 207.92 43.7883C207.698 43.8794 207.462 43.925 207.211 43.925C206.573 43.925 206.055 43.6288 205.656 43.0363L199.623 33.3806L194.53 33.3806L194.53 42.1135C194.53 42.6148 194.354 43.042 194.001 43.3952C193.648 43.7484 193.22 43.925 192.719 43.925C192.218 43.925 191.79 43.7484 191.437 43.3952C191.084 43.042 190.907 42.6148 190.907 42.1135ZM215.021 20.2043L215.021 31.0734L218.473 31.0734C219.214 31.0734 219.912 30.931 220.567 30.6462C221.222 30.3614 221.797 29.974 222.293 29.4841C222.789 28.9942 223.182 28.4188 223.472 27.758C223.763 27.0972 223.908 26.3908 223.908 25.6389C223.908 24.8755 223.763 24.1634 223.472 23.5026C223.182 22.8418 222.789 22.2665 222.293 21.7766C221.797 21.2867 221.219 20.9021 220.558 20.623C219.898 20.3439 219.203 20.2043 218.473 20.2043L215.021 20.2043ZM211.398 42.1135L211.398 18.3928C211.398 18.1421 211.444 17.9057 211.535 17.6835C211.626 17.4614 211.754 17.2677 211.919 17.1025C212.085 16.9373 212.275 16.8091 212.492 16.718C212.708 16.6268 212.948 16.5813 213.21 16.5813L218.473 16.5813C219.294 16.5813 220.088 16.6895 220.857 16.906C221.626 17.1224 222.347 17.43 223.019 17.8288C223.691 18.2276 224.307 18.7032 224.865 19.2558C225.423 19.8084 225.899 20.4208 226.292 21.093C226.685 21.7652 226.993 22.4858 227.215 23.2548C227.437 24.0239 227.548 24.8186 227.548 25.6389C227.548 28.1226 226.654 30.2588 224.865 32.0476C223.099 33.8135 220.968 34.6965 218.473 34.6965L215.021 34.6965L215.021 42.1135C215.021 42.6148 214.845 43.042 214.491 43.3952C214.138 43.7484 213.711 43.925 213.21 43.925C212.708 43.925 212.281 43.7484 211.928 43.3952C211.575 43.042 211.398 42.6148 211.398 42.1135Z"
              fill="rgb(0,0,0)" fill-rule="nonzero"/>
        <path id="矢量 1"
              d="M35.48 30.26L47.2 18.54C48.33 19 49.56 19.26 50.86 19.26C56.18 19.26 60.49 14.95 60.49 9.63C60.49 4.31 56.17 0 50.86 0C45.55 0 41.23 4.31 41.23 9.63C41.23 10.93 41.49 12.18 41.96 13.31L30.24 25.03L12.61 7.4L23.3 7.4C25.34 7.4 27 5.74 27 3.7C27 1.66 25.34 3.57628e-07 23.3 3.57628e-07L3.7 3.57628e-07C2.42 3.57628e-07 1.3 0.65 0.630001 1.63C0.230001 2.22 8.34465e-07 2.93 8.34465e-07 3.7L8.34465e-07 23.3C8.34465e-07 25.34 1.66 27 3.7 27C5.74 27 7.4 25.34 7.4 23.3L7.4 12.65L25.01 30.26L13.99 41.28C12.77 40.75 11.43 40.46 10.01 40.46C4.48 40.46 0 44.94 0 50.47C0 56 4.48 60.48 10.01 60.48C15.54 60.48 20.02 56 20.02 50.47C20.02 49.07 19.73 47.73 19.21 46.52L30.23 35.5L53.32 58.59C54.77 60.04 57.11 60.04 58.55 58.59C60 57.14 60 54.8 58.55 53.36L35.46 30.27L35.48 30.26Z"
              fill="rgb(0,0,0)" fill-rule="evenodd"/>
    </g>
</svg>
